<?xml version="1.0" encoding="UTF-8"?>
<svg width="158px" height="158px" viewBox="0 0 158 158" version="1.1" xmlns="http://www.w3.org/2000/svg" xmlns:xlink="http://www.w3.org/1999/xlink">
    <title>Square Tonalities Copy</title>
    <defs>
        <path d="M158,0 L158,142 C158,150.8366 152.340914,158 145.36,158 L12.64,158 C5.659086,158 0,150.8366 0,142 L0,0 L158,0 Z" id="path-1"></path>
        <linearGradient x1="0%" y1="0%" x2="100%" y2="0%" id="linearGradient-3">
            <stop stop-color="#FEF851" offset="0%"></stop>
            <stop stop-color="#ED3A33" offset="100%"></stop>
        </linearGradient>
    </defs>
    <g id="Square-Tonalities-Copy" stroke="none" stroke-width="1" fill="none" fill-rule="evenodd">
        <g id="Group">
            <g id="bgcolor">
                <mask id="mask-2" fill="white">
                    <use xlink:href="#path-1"></use>
                </mask>
                <g id="Clip-124"></g>
                <path d="M36,158 L122,158 C141.882251,158 158,141.882251 158,122 L158,36 C158,16.117749 141.882251,-4.86974701e-15 122,0 L36,0 C16.117749,3.65231026e-15 -3.65231026e-15,16.117749 0,36 L0,122 C2.4348735e-15,141.882251 16.117749,158 36,158 Z" id="Fill-123" fill="url(#linearGradient-3)" mask="url(#mask-2)"></path>
            </g>
            <g id="logo" transform="translate(41.962905, 41.962902)" stroke="#FFFFFF" stroke-linecap="round" stroke-linejoin="round" stroke-width="2.125">
                <path d="M74.3876722,37.191813 L37.1918098,37.191813 M73.871367,43.3915287 L37.1918098,43.3915287 M72.2697751,49.5904339 L37.1918098,49.5904339 M69.4102383,55.792573 L37.1918179,55.792573 M64.9142489,61.9890466 L37.1918098,61.9890466 M57.7589228,68.1879517 L37.1918098,68.1879517 M73.871367,30.99615 L37.1918098,30.99615 M72.2721986,24.7964343 L37.1918098,24.7964343 M69.4134723,18.5975292 L37.1918098,18.5975292 M64.9207251,12.3978135 L37.1918098,12.3978135 M57.7653989,6.20215049 L37.1918098,6.20215049 M37.1950519,3.24210527e-06 C57.7370305,3.24210527e-06 74.3876722,16.6498345 74.3876722,37.1950551 C74.3876722,57.7370337 57.7370305,74.3876755 37.1950519,74.3876755" id="Stroke-126"></path>
                <path d="M37.1950519,6.19890838 C54.3141779,6.19890838 68.1911987,20.0759292 68.1911987,37.1950551 C68.1911987,54.3109471 54.3141779,68.19121 37.1950519,68.19121" id="Stroke-128"></path>
                <path d="M37.1950519,12.3978135 C50.8888937,12.3978135 61.9922935,23.4987817 61.9922935,37.191813 C61.9922935,50.888897 50.8888937,61.9890547 37.1950519,61.9890547" id="Stroke-130"></path>
                <path d="M37.1950519,74.3876755 C16.6530734,74.3876755 -5.68434189e-14,57.7337916 -5.68434189e-14,37.191813 C-5.68434189e-14,16.6498345 16.6530734,5.68434189e-14 37.1950519,5.68434189e-14" id="Stroke-132"></path>
                <path d="M37.1950519,68.1879598 C20.0759746,68.1888595 6.19800951,54.3108823 6.19890514,37.191813 C6.19756129,20.0725655 20.0757881,6.19432648 37.1950519,6.19566547" id="Stroke-134"></path>
                <path d="M37.1950519,61.9890547 C23.4987785,61.9890547 12.3978103,50.888897 12.3978103,37.191813 C12.3978103,23.4987817 23.4987785,12.3978135 37.1950519,12.3978135 M37.1918098,8.1052633e-07 L37.1918098,74.3876755" id="Stroke-136"></path>
            </g>
        </g>
    </g>
</svg>