<?xml version="1.0" encoding="UTF-8" standalone="no"?>
<svg
  xmlns="http://www.w3.org/2000/svg"
  viewBox="0 0 204.46667 55.560001"
  height="55.560001"
  width="204.46667"
  id="svg2"
  version="1.1"
>
  <defs id="defs6" />
  <g transform="matrix(1.3333333,0,0,-1.3333333,0,55.56)" id="g10">
    <g transform="matrix(1,0,0,-1,0,41.67)" id="g12">
      <path
        id="path14"
        style="fill: #000000; fill-opacity: 1; fill-rule: nonzero; stroke: none"
        d="M 45.059,10.355 H 36.66 v 21.629 h 3.613 v -8.55 h 4.633 c 4.59,0 7.438,-2.536 7.438,-6.618 0,-3.925 -2.86,-6.461 -7.285,-6.461 z m -4.789,3.059 h 4.519 c 2.465,0 3.879,1.266 3.879,3.477 0,2.281 -1.379,3.484 -3.988,3.484 h -4.41 z"
      />
    </g>
    <g transform="matrix(1,0,0,-1,0,41.67)" id="g16">
      <path
        id="path18"
        style="fill: #000000; fill-opacity: 1; fill-rule: nonzero; stroke: none"
        d="m 124.195,15.836 c -1.812,-0.125 -3.558,0.707 -4.597,2.199 -0.02,-0.617 -0.055,-1.347 -0.106,-1.64 l -0.031,-0.192 h -3.332 l 0.004,0.235 c 0.031,1.187 0.031,2.57 0.031,3.902 v 11.84 h 3.453 v -8.528 c 0,-2.195 0.629,-4.816 3.637,-4.816 1.953,0 2.906,1.152 2.906,3.523 v 9.821 h 3.445 V 21.988 c -0.003,-3.847 -2.023,-6.152 -5.41,-6.152 z"
      />
    </g>
    <g transform="matrix(1,0,0,-1,0,41.67)" id="g20">
      <path
        id="path22"
        style="fill: #000000; fill-opacity: 1; fill-rule: nonzero; stroke: none"
        d="m 61.715,15.73 c -4.527,0.043 -8.176,3.727 -8.176,8.254 0,4.532 3.649,8.215 8.176,8.258 2.203,0.02 4.324,-0.84 5.89,-2.39 1.567,-1.551 2.446,-3.664 2.446,-5.868 0,-2.203 -0.879,-4.316 -2.446,-5.863 -1.566,-1.551 -3.687,-2.414 -5.89,-2.391 z m 0,13.211 c -4.406,-0.003 -6.613,-5.336 -3.492,-8.453 3.117,-3.117 8.445,-0.906 8.445,3.5 0,2.735 -2.219,4.953 -4.953,4.953 z"
      />
    </g>
    <g transform="matrix(1,0,0,-1,0,41.67)" id="g24">
      <path
        id="path26"
        style="fill: #000000; fill-opacity: 1; fill-rule: nonzero; stroke: none"
        d="m 104.73,15.73 c -4.531,0.043 -8.179,3.727 -8.179,8.254 0,4.532 3.648,8.215 8.179,8.258 2.204,0.02 4.325,-0.84 5.891,-2.39 1.563,-1.551 2.445,-3.664 2.445,-5.868 0,-2.203 -0.882,-4.316 -2.445,-5.863 -1.566,-1.551 -3.687,-2.414 -5.891,-2.391 z m 0,13.211 c -4.41,-0.003 -6.613,-5.336 -3.496,-8.453 3.121,-3.117 8.45,-0.906 8.45,3.5 0,2.735 -2.219,4.953 -4.954,4.953 z"
      />
    </g>
    <g transform="matrix(1,0,0,-1,0,41.67)" id="g28">
      <path
        id="path30"
        style="fill: #000000; fill-opacity: 1; fill-rule: nonzero; stroke: none"
        d="m 153.289,31.699 c -0.144,-1.148 -0.215,-2.304 -0.207,-3.461 v -7.246 c 0,-3.543 -2.094,-5.344 -6.223,-5.359 h -0.039 c -5.09,0 -6.136,3.051 -6.308,4.875 l -0.024,0.246 h 3.317 l 0.039,-0.176 c 0.265,-1.207 0.672,-2.203 2.914,-2.203 2.625,0 2.933,1.512 2.933,2.648 v 1.024 h -2.339 c -4.95,0 -7.575,1.832 -7.575,5.297 -0.023,1.269 0.446,2.496 1.305,3.429 1.109,1.079 2.617,1.645 4.164,1.563 2.07,0 3.59,-0.613 4.524,-1.824 0.023,0.445 0.097,0.883 0.218,1.308 l 0.055,0.153 h 3.297 z m -7.367,-2.101 c -1.633,0 -2.645,-0.926 -2.645,-2.422 0,-1.848 1.325,-2.672 4.293,-2.672 h 2.137 v 0.254 c 0.004,2.906 -0.641,4.84 -3.785,4.84 z"
      />
    </g>
    <g transform="matrix(1,0,0,-1,0,41.67)" id="g32">
      <path
        id="path34"
        style="fill: #000000; fill-opacity: 1; fill-rule: nonzero; stroke: none"
        d="M 73.285,9.305 H 76.73 V 32.117 H 73.285 Z"
      />
    </g>
    <g transform="matrix(1,0,0,-1,0,41.67)" id="g36">
      <path
        id="path38"
        style="fill: #000000; fill-opacity: 1; fill-rule: nonzero; stroke: none"
        d="M 95.633,9.211 C 95.031,9.062 94.41,8.992 93.793,9 c -3.117,0 -4.832,1.992 -4.832,5.605 v 1.536 h -2.457 v 2.843 h 2.457 V 32.117 H 92.41 V 18.98 h 3.035 V 16.141 H 92.41 v -1.336 c 0,-1.77 0.309,-2.793 1.883,-2.793 0.41,0 0.82,0.039 1.223,0.121 l 0.277,0.062 V 9.258 Z"
      />
    </g>
    <g transform="matrix(1,0,0,-1,0,41.67)" id="g40">
      <path
        id="path42"
        style="fill: #000000; fill-opacity: 1; fill-rule: nonzero; stroke: none"
        d="m 133.559,16.141 h 3.44901 V 32.118 H 133.559 Z"
      />
    </g>
    <g transform="matrix(1,0,0,-1,0,41.67)" id="g44">
      <path
        id="path46"
        style="fill: #000000; fill-opacity: 1; fill-rule: nonzero; stroke: none"
        d="m 133.559,9.754 h 3.44901 v 3.445 H 133.559 Z"
      />
    </g>
    <g transform="matrix(1,0,0,-1,0,41.67)" id="g48">
      <path
        id="path50"
        style="fill: #000000; fill-opacity: 1; fill-rule: nonzero; stroke: none"
        d="m 80.727,16.141 h 3.445 v 15.977 h -3.445 z"
      />
    </g>
    <g transform="matrix(1,0,0,-1,0,41.67)" id="g52">
      <path
        id="path54"
        style="fill: #000000; fill-opacity: 1; fill-rule: nonzero; stroke: none"
        d="m 80.727,9.754 h 3.445 v 3.445 h -3.445 z"
      />
    </g>
    <g transform="matrix(1,0,0,-1,0,41.67)" id="g56">
      <path
        id="path58"
        style="fill: #ffff00; fill-opacity: 1; fill-rule: nonzero; stroke: none"
        d="m 0,25.402 v -1.004 c 1.969,0 3.562,-1.597 3.566,-3.562 C 3.562,18.867 1.969,17.273 0,17.27 v -1.004 c 2.523,0.004 4.566,2.046 4.566,4.57 0,2.519 -2.046,4.562 -4.566,4.566 z"
      />
    </g>
    <g transform="matrix(1,0,0,-1,0,41.67)" id="g60">
      <path
        id="path62"
        style="fill: #6400b4; fill-opacity: 1; fill-rule: nonzero; stroke: none"
        d="m 19.832,20.836 c 0,-5.148 -2.008,-10.098 -5.598,-13.789 0.235,-0.238 0.473,-0.473 0.715,-0.703 3.778,3.879 5.887,9.078 5.887,14.492 0,2.543 -0.469,5.062 -1.379,7.437 -0.254,-0.308 -0.496,-0.628 -0.719,-0.961 0.723,-2.082 1.094,-4.273 1.094,-6.476 z m -1.523,7.609 C 15.23,35.84 8.012,40.66 0,40.668 v 1.004 C 8.223,41.664 15.672,36.828 19.023,29.32 18.773,29.035 18.535,28.746 18.309,28.445 Z M 14.234,5.645 C 10.383,2.02 5.293,0 0,0.004 v 1.004 c 5.023,-0.004 9.855,1.906 13.52,5.34 0.234,-0.243 0.472,-0.477 0.714,-0.707 z"
      />
    </g>
    <g transform="matrix(1,0,0,-1,0,41.67)" id="g64">
      <path
        id="path66"
        style="fill: #ff0000; fill-opacity: 1; fill-rule: nonzero; stroke: none"
        d="M 0,9.137 V 8.133 c 7.012,0.008 12.695,5.691 12.703,12.703 0,2.746 -0.891,5.418 -2.543,7.609 C 10.004,28.078 9.859,27.703 9.727,27.32 11.012,25.402 11.699,23.145 11.695,20.836 11.688,14.379 6.457,9.145 0,9.137 Z M 9.012,28.285 C 6.793,30.977 3.488,32.535 0,32.531 v 1.004 C 3.605,33.539 7.039,32.004 9.441,29.32 9.289,28.98 9.148,28.633 9.012,28.285 Z"
      />
    </g>
    <g transform="matrix(1,0,0,-1,0,41.67)" id="g68">
      <path
        id="path70"
        style="fill: #0000ff; fill-opacity: 1; fill-rule: nonzero; stroke: none"
        d="m 28.465,25.402 c -2.52,-0.004 -4.563,-2.047 -4.567,-4.566 0.004,-2.524 2.047,-4.566 4.567,-4.57 v 1.004 c -1.969,0.003 -3.563,1.597 -3.563,3.566 0,1.965 1.598,3.562 3.563,3.562 z"
      />
    </g>
    <g transform="matrix(1,0,0,-1,0,41.67)" id="g72">
      <path
        id="path74"
        style="fill: #00ff00; fill-opacity: 1; fill-rule: nonzero; stroke: none"
        d="M 13.516,35.324 C 9.738,31.445 7.629,26.246 7.629,20.836 c 0,-2.543 0.469,-5.066 1.379,-7.441 0.258,0.308 0.496,0.628 0.719,0.96 -0.723,2.086 -1.094,4.274 -1.094,6.481 0,5.148 2.008,10.094 5.597,13.785 -0.234,0.238 -0.472,0.477 -0.714,0.703 z m 0.714,0.703 c 3.852,3.625 8.946,5.645 14.235,5.641 v -1.004 c -5.024,0.004 -9.856,-1.91 -13.52,-5.344 -0.23,0.242 -0.472,0.481 -0.715,0.707 z M 9.441,12.352 c 0.25,0.281 0.489,0.574 0.711,0.875 C 13.234,5.832 20.453,1.012 28.465,1 V -0.004 C 20.242,0.008 12.793,4.844 9.441,12.352 Z"
      />
    </g>
    <g transform="matrix(1,0,0,-1,0,41.67)" id="g76">
      <path
        id="path78"
        style="fill: #00ffff; fill-opacity: 1; fill-rule: nonzero; stroke: none"
        d="m 28.465,32.531 v 1.004 C 21.453,33.527 15.773,27.848 15.766,20.836 c -0.004,-2.746 0.886,-5.418 2.535,-7.609 0.156,0.371 0.301,0.742 0.433,1.125 -1.285,1.918 -1.968,4.175 -1.964,6.484 0.007,6.457 5.238,11.687 11.695,11.695 z M 19.02,12.352 c 0.152,0.343 0.296,0.687 0.429,1.039 2.219,-2.696 5.528,-4.254 9.016,-4.254 V 8.133 c -3.606,0 -7.039,1.535 -9.445,4.219 z"
      />
    </g>
  </g>
</svg>
